<svg id="Layer_1" enable-background="new 0 0 256 256" height="512" viewBox="0 0 256 256" width="512" xmlns="http://www.w3.org/2000/svg"><g><g><path d="m229.988 179.061v-158.312c0-7.041-5.708-12.749-12.748-12.749h-179.228c-6.627 0-12 5.373-12 12v159.061c0 5.208 2.702 10.044 7.137 12.774l88.168 54.273c4.098 2.523 9.268 2.523 13.366 0l88.168-54.273c4.435-2.73 7.137-7.565 7.137-12.774z" fill="#4671c6"/></g><g><path d="m43.86 173.559v-141.711c0-3.314 2.686-6 6-6h156.28c3.314 0 6 2.686 6 6v141.711c0 2.431-1.261 4.687-3.331 5.961l-80.809 49.744-80.81-49.744c-2.069-1.274-3.33-3.53-3.33-5.961z" fill="#6bdddd"/></g><g><path d="m128 250.013c-2.673 0-5.346-.734-7.731-2.202l-88.168-54.272c-4.989-3.071-8.089-8.619-8.089-14.477v-159.062c0-7.72 6.28-14 14-14h179.228c8.133 0 14.749 6.616 14.749 14.749v158.313c0 5.858-3.1 11.405-8.088 14.477l-88.169 54.272c-2.385 1.468-5.059 2.202-7.732 2.202zm-89.988-240.013c-5.514 0-10 4.486-10 10v159.062c0 4.48 2.37 8.722 6.186 11.071l88.168 54.272c3.476 2.14 7.793 2.14 11.268 0l88.169-54.272c3.815-2.349 6.186-6.591 6.186-11.071v-158.313c0-5.927-4.822-10.749-10.749-10.749z" fill="#3762cc"/></g><g><path d="m128 231.264c-.363 0-.727-.099-1.048-.297l-80.81-49.743c-2.641-1.625-4.282-4.563-4.282-7.665v-141.711c0-4.411 3.589-8 8-8h156.281c4.411 0 8 3.589 8 8v141.711c0 3.102-1.642 6.039-4.283 7.664l-80.809 49.744c-.322.198-.686.297-1.049.297zm-78.14-203.416c-2.206 0-4 1.794-4 4v141.711c0 1.724.912 3.355 2.379 4.258l79.761 49.098 79.761-49.098c1.468-.903 2.38-2.535 2.38-4.258v-141.711c0-2.206-1.794-4-4-4z" fill="#3762cc"/></g><g><circle cx="128" cy="100.09" fill="#e0ebfc" r="55.456"/></g><g><path d="m128 80.419c-1.104 0-2-.896-2-2v-17.561c0-1.104.896-2 2-2s2 .896 2 2v17.561c0 1.104-.896 2-2 2z" fill="#3762cc"/></g><g><path d="m106.025 96.386c-.205 0-.413-.032-.619-.098l-17.581-5.712c-1.05-.342-1.625-1.47-1.284-2.521.342-1.051 1.472-1.623 2.521-1.284l17.581 5.712c1.05.342 1.625 1.47 1.284 2.521-.275.845-1.059 1.382-1.902 1.382z" fill="#3762cc"/></g><g><path d="m103.976 136.766c-.404 0-.812-.122-1.165-.375-.897-.645-1.103-1.894-.459-2.791l10.441-14.546c.645-.898 1.895-1.102 2.791-.459.897.645 1.103 1.894.459 2.791l-10.441 14.546c-.391.545-1.004.834-1.626.834z" fill="#3762cc"/></g><g><path d="m149.979 96.385c-.844 0-1.628-.537-1.902-1.382-.341-1.051.233-2.179 1.284-2.521l17.58-5.712c1.053-.34 2.18.235 2.521 1.284.341 1.051-.233 2.179-1.284 2.521l-17.58 5.712c-.205.067-.414.098-.619.098z" fill="#3762cc"/></g><g><path d="m152.043 136.785c-.623 0-1.236-.29-1.627-.833l-10.456-14.566c-.644-.897-.438-2.147.459-2.791.896-.646 2.146-.438 2.791.458l10.456 14.566c.644.897.438 2.147-.459 2.791-.353.254-.761.375-1.164.375z" fill="#3762cc"/></g><g><path d="m109.854 47.674 18.146 13.184 18.146-13.184c-5.686-1.968-11.791-3.041-18.146-3.041s-12.46 1.073-18.146 3.041z" fill="#4671c6"/></g><g><path d="m103.963 134.786-19.768-.69c6.334 8.147 14.889 14.483 24.758 18.092z" fill="#4671c6"/></g><g><path d="m147.051 152.186c9.868-3.61 18.422-9.944 24.755-18.091l-19.765.69z" fill="#4671c6"/></g><g><path d="m167.56 88.672 15.894 11.548c.001 0 .001 0 .002-.001.026-11.561-3.485-22.299-9.512-31.195z" fill="#4671c6"/></g><g><path d="m128 78.419-21.976 15.966 8.394 25.835h27.164l8.394-25.835z" fill="#4671c6"/></g><g><path d="m141.582 122.22h-27.164c-.867 0-1.634-.558-1.902-1.382l-8.394-25.834c-.268-.824.026-1.727.727-2.236l21.976-15.966c.701-.509 1.65-.509 2.352 0l21.976 15.966c.701.509.994 1.412.727 2.236l-8.394 25.834c-.269.824-1.038 1.382-1.904 1.382zm-25.71-4h24.257l7.495-23.07-19.624-14.259-19.625 14.258z" fill="#3762cc"/></g><g><path d="m72.545 100.14 15.783-11.467-6.348-19.537c-5.958 8.841-9.437 19.49-9.437 30.953.001.018.002.034.002.051z" fill="#4671c6"/></g><g><path d="m128 62.858c-.413 0-.825-.127-1.176-.382l-17.431-12.664c-.894-.649-1.091-1.9-.442-2.794.65-.894 1.9-1.09 2.794-.442l16.255 11.81 16.255-11.81c.896-.65 2.145-.45 2.794.442.649.894.451 2.145-.442 2.794l-17.431 12.664c-.351.254-.763.382-1.176.382z" fill="#3762cc"/></g><g><path d="m182.687 101.664c-.407 0-.818-.124-1.174-.382l-15.129-10.992c-.701-.509-.994-1.412-.727-2.236l6.185-19.034c.341-1.05 1.47-1.625 2.521-1.284 1.051.342 1.625 1.47 1.284 2.521l-5.735 17.651 13.953 10.138c.894.649 1.092 1.9.442 2.794-.392.538-1.001.824-1.62.824z" fill="#3762cc"/></g><g><path d="m147.318 153.259c-.183 0-.368-.025-.552-.078-1.063-.304-1.676-1.412-1.372-2.474l4.724-16.474c.239-.833.987-1.417 1.854-1.448l18.772-.655c1.104-.014 2.029.826 2.068 1.929.038 1.104-.825 2.03-1.93 2.069l-17.319.604-4.323 15.077c-.252.879-1.052 1.45-1.922 1.45z" fill="#3762cc"/></g><g><path d="m108.694 153.29c-.87 0-1.67-.572-1.921-1.449l-4.332-15.106-17.414-.608c-1.104-.039-1.967-.965-1.929-2.069.039-1.104.976-1.951 2.069-1.929l18.866.659c.866.03 1.614.615 1.853 1.448l4.732 16.503c.305 1.062-.31 2.169-1.371 2.474-.185.051-.371.077-.553.077z" fill="#3762cc"/></g><g><path d="m72.983 101.823c-.618 0-1.228-.286-1.62-.825-.649-.894-.451-2.144.443-2.793l14.171-10.295-5.713-17.583c-.341-1.051.234-2.179 1.284-2.521 1.049-.34 2.179.233 2.521 1.284l6.162 18.965c.268.824-.026 1.727-.727 2.236l-15.347 11.149c-.354.259-.766.383-1.174.383z" fill="#3762cc"/></g><g><path d="m128 157.545c-31.681 0-57.456-25.775-57.456-57.456s25.775-57.455 57.456-57.455c31.682 0 57.456 25.774 57.456 57.456s-25.774 57.455-57.456 57.455zm0-110.911c-29.476 0-53.456 23.98-53.456 53.456s23.98 53.456 53.456 53.456 53.456-23.98 53.456-53.456-23.98-53.456-53.456-53.456z" fill="#3762cc"/></g><g><path d="m78.928 173.383v-35c0-.023.006-.043.007-.066h-24.759c-2.479 0-3.591 3.029-1.673 4.56l13.796 11.017c1.288 1.029 1.288 2.949 0 3.977l-13.796 11.017c-1.918 1.531-.806 4.56 1.673 4.56h24.759c-.001-.022-.007-.043-.007-.065z" fill="#ffea92"/></g><g><path d="m78.935 175.449h-24.759c-2.009 0-3.731-1.209-4.386-3.082-.644-1.838-.069-3.817 1.465-5.042l13.796-11.017c.177-.141.214-.31.214-.426s-.038-.285-.214-.426l-13.796-11.016c-1.534-1.225-2.109-3.204-1.465-5.042.656-1.872 2.377-3.082 4.387-3.082h24.758c1.104 0 2 .896 2 2 0 .046-.002.101-.006.155v34.823c.004.054.006.108.006.154 0 1.105-.896 2.001-2 2.001zm-24.759-35.132c-.409 0-.559.253-.611.404-.122.348.11.533.186.593l13.796 11.017c1.092.872 1.718 2.167 1.718 3.552s-.626 2.68-1.718 3.551l-13.796 11.017c-.076.061-.308.246-.186.594.053.151.203.404.611.404h22.752v-31.132z" fill="#3762cc"/></g><g><path d="m204.56 168.889-13.796-11.017c-1.288-1.029-1.288-2.949 0-3.977l13.796-11.017c1.918-1.531.806-4.56-1.673-4.56h-24.979c0 .022.007.043.007.066v35c0 .023-.006.043-.007.066h24.979c2.479-.001 3.59-3.03 1.673-4.561z" fill="#ffea92"/></g><g><path d="m202.887 175.449h-24.979c-.546 0-1.067-.223-1.444-.617-.378-.394-.577-.925-.554-1.47.001-.022.003-.048.005-.075v-34.821c-.004-.052-.006-.104-.006-.148 0-1.104.896-2 2-2h24.979c2.009 0 3.73 1.209 4.386 3.081.645 1.838.069 3.817-1.465 5.042l-13.796 11.017c-.177.141-.214.31-.214.426s.037.285.214.426l13.796 11.017c1.533 1.225 2.108 3.204 1.465 5.042-.657 1.87-2.378 3.08-4.387 3.08zm-22.973-4h22.973c.408 0 .558-.253.61-.404.122-.348-.109-.533-.186-.593l-13.796-11.017c-1.092-.872-1.718-2.167-1.718-3.552s.626-2.68 1.718-3.551l13.796-11.017c.076-.061.308-.246.187-.594-.053-.15-.203-.403-.611-.403h-22.973z" fill="#3762cc"/></g><g><path d="m172.914 178.383h-88.986c-2.761 0-5-2.239-5-5v-35c0-2.761 2.239-5 5-5h88.986c2.761 0 5 2.239 5 5v35c0 2.761-2.238 5-5 5z" fill="#ffea92"/></g><g><path d="m121.012 140.327h-13.661c-.96 0-1.779.152-2.436.452-.747.341-1.302.892-1.651 1.636-.313.667-.466 1.474-.466 2.465v22.014c0 1.438.362 2.559 1.075 3.332.734.797 1.688 1.201 2.833 1.201 1.129 0 2.075-.399 2.809-1.186.716-.767 1.079-1.893 1.079-3.346v-8.426h8.543c1.119 0 2.004-.281 2.633-.836.655-.579 1.001-1.385 1.001-2.33 0-.939-.339-1.745-.981-2.33-.624-.568-1.517-.856-2.654-.856h-8.543v-5.319h10.417c1.176 0 2.096-.295 2.733-.876.654-.597.999-1.416.999-2.368 0-.939-.345-1.751-1-2.349-.634-.583-1.554-.878-2.73-.878z" fill="#4671c6"/></g><g><path d="m152.389 158.39c-.685-.667-1.517-1.006-2.473-1.006-1.409 0-2.164.601-2.549 1.103-.434.564-.796 1.286-1.064 2.11-.513 1.4-1.27 2.468-2.249 3.171-.986.708-2.178 1.052-3.642 1.052-1.336 0-2.509-.315-3.484-.937-.979-.623-1.722-1.556-2.271-2.853-.568-1.347-.856-3.085-.856-5.164 0-3.087.641-5.474 1.905-7.093 1.224-1.567 2.827-2.328 4.901-2.328 1.301 0 2.35.287 3.209.878.884.608 1.674 1.559 2.347 2.826.51.961.979 1.639 1.435 2.073.562.531 1.354.801 2.357.801.937 0 1.777-.374 2.432-1.083.643-.696.969-1.515.969-2.435 0-1.415-.548-2.906-1.629-4.432-1.054-1.487-2.573-2.744-4.518-3.738-1.942-.992-4.177-1.495-6.641-1.495-2.02 0-3.951.366-5.741 1.087-1.801.726-3.395 1.799-4.738 3.19-1.34 1.39-2.382 3.08-3.097 5.023-.708 1.924-1.066 4.122-1.066 6.532 0 1.481.142 2.903.421 4.227.282 1.335.711 2.609 1.277 3.788.569 1.186 1.265 2.271 2.075 3.233.912 1.067 1.93 1.941 3.025 2.598 1.096.657 2.326 1.146 3.655 1.453 1.306.302 2.767.455 4.343.455 2.116 0 4.008-.349 5.622-1.036 1.618-.689 2.973-1.605 4.025-2.722 1.039-1.102 1.816-2.252 2.311-3.418.5-1.179.753-2.305.753-3.347.001-.978-.361-1.847-1.044-2.513z" fill="#4671c6"/></g><g><path d="m172.914 180.383h-88.986c-3.86 0-7-3.14-7-7v-35c0-3.86 3.14-7 7-7h88.986c3.859 0 7 3.14 7 7v35c0 3.86-3.141 7-7 7zm-88.986-45c-1.654 0-3 1.346-3 3v35c0 1.654 1.346 3 3 3h88.986c1.654 0 3-1.346 3-3v-35c0-1.654-1.346-3-3-3z" fill="#3762cc"/></g></g></svg>