<svg data-v-423bf9ae="" xmlns="http://www.w3.org/2000/svg" viewBox="0 0 495 90" class="iconLeft"><!----><!----><!----><g data-v-423bf9ae="" id="6a6a8209-f656-40c7-97c3-77f18b0fc548" fill="white" transform="matrix(4.979253427292024,0,0,4.979253427292024,103.72615535851395,-3.7717838954077365)"><path d="M7.83 15.54C7.83 15.69 7.67 15.81 7.48 15.81L1.54 15.81C1.39 15.81 1.26 15.69 1.26 15.54L1.26 4.12C1.26 3.93 1.39 3.78 1.54 3.78L3.18 3.78C3.33 3.78 3.44 3.93 3.44 4.12L3.44 13.62L7.48 13.62C7.67 13.62 7.83 13.75 7.83 13.90ZM13.75 5.95L13.75 13.61L15.58 13.61C15.78 13.61 15.93 13.73 15.93 13.89L15.93 15.53C15.93 15.68 15.78 15.81 15.58 15.81L9.65 15.81C9.49 15.81 9.37 15.68 9.37 15.53L9.37 13.89C9.37 13.73 9.49 13.61 9.65 13.61L11.55 13.61L11.55 5.95L9.65 5.95C9.49 5.95 9.37 5.84 9.37 5.68L9.37 4.05C9.37 3.89 9.49 3.77 9.65 3.77L15.58 3.77C15.78 3.77 15.93 3.89 15.93 4.05L15.93 5.68C15.93 5.84 15.78 5.95 15.58 5.95ZM25.30 4.07C25.30 4.10 25.30 4.13 25.28 4.16L22.41 15.58C22.41 15.60 22.40 15.61 22.40 15.62C22.37 15.74 22.26 15.82 22.15 15.82L20.34 15.82C20.22 15.82 20.12 15.74 20.09 15.61L17.21 4.16C17.21 4.14 17.19 4.14 17.19 4.13L17.19 4.07C17.19 3.91 17.32 3.78 17.46 3.78L19.15 3.78C19.28 3.78 19.38 3.86 19.42 3.99L19.42 4.02L21.24 11.30L23.07 4.02L23.07 3.99C23.11 3.86 23.21 3.78 23.34 3.78L25.02 3.78C25.17 3.78 25.30 3.91 25.30 4.07ZM34.62 15.54C34.62 15.69 34.50 15.82 34.36 15.82L26.70 15.82C26.54 15.82 26.42 15.69 26.42 15.54L26.42 4.06C26.42 3.91 26.54 3.78 26.70 3.78L34.08 3.78C34.23 3.78 34.36 3.91 34.36 4.06L34.36 5.70C34.36 5.85 34.23 5.96 34.08 5.96L28.60 5.96L28.60 8.71L33.80 8.71C33.95 8.71 34.08 8.82 34.08 8.97L34.08 10.61C34.08 10.77 33.95 10.89 33.80 10.89L28.60 10.89L28.60 13.62L34.36 13.62C34.50 13.62 34.62 13.75 34.62 13.90ZM44.65 5.67C44.65 5.82 44.52 5.95 44.38 5.95L39.87 5.95L42.15 8.69L42.94 8.69C43.13 8.69 43.27 8.81 43.27 8.96L43.27 10.60C43.27 10.75 43.13 10.88 42.94 10.88L38.63 10.88L38.63 15.51C38.63 15.67 38.51 15.81 38.36 15.81L36.72 15.81C36.57 15.81 36.44 15.67 36.44 15.51L36.44 8.69L39.30 8.69L36.44 5.25L36.44 4.06C36.44 3.89 36.57 3.77 36.72 3.77L44.38 3.77C44.52 3.77 44.65 3.89 44.65 4.06ZM50.95 15.82C47.63 15.82 44.93 13.12 44.93 9.80C44.93 6.48 47.63 3.78 50.95 3.78C54.26 3.78 56.97 6.48 56.97 9.80C56.97 13.12 54.26 15.82 50.95 15.82ZM50.95 5.96C48.83 5.96 47.11 7.69 47.11 9.80C47.11 11.91 48.83 13.62 50.95 13.62C53.06 13.62 54.77 11.91 54.77 9.80C54.77 7.69 53.06 5.96 50.95 5.96ZM64.11 15.82C60.79 15.82 58.09 13.12 58.09 9.80C58.09 6.48 60.79 3.78 64.11 3.78C67.42 3.78 70.13 6.48 70.13 9.80C70.13 13.12 67.42 15.82 64.11 15.82ZM64.11 5.96C61.99 5.96 60.27 7.69 60.27 9.80C60.27 11.91 61.99 13.62 64.11 13.62C66.22 13.62 67.93 11.91 67.93 9.80C67.93 7.69 66.22 5.96 64.11 5.96ZM78.40 5.68C78.40 5.84 78.25 5.96 78.06 5.96L75.39 5.96L75.39 15.47C75.39 15.65 75.26 15.81 75.12 15.81L73.47 15.81C73.33 15.81 73.21 15.65 73.21 15.47L73.21 5.96L70.48 5.96C70.32 5.96 70.20 5.84 70.20 5.68L70.20 4.05C70.20 3.89 70.32 3.78 70.48 3.78L78.06 3.78C78.25 3.78 78.40 3.89 78.40 4.05Z"></path></g><!----><g data-v-423bf9ae="" id="3ee48f10-b15c-4e35-b1fb-ca2ff1bb18be" transform="matrix(2.8125,0,0,2.8125,0,0)" stroke="none" fill="white"><path d="M16 32c8.837 0 16-7.163 16-16S24.837 0 16 0 0 7.163 0 16s7.163 16 16 16zM14.817 6.421h2v8.886h8.887v2H14.817V6.421zm-5.959.437h2v14.283h14.283v2H8.858V6.858z"></path></g><!----></svg>