<svg data-v-423bf9ae="" xmlns="http://www.w3.org/2000/svg" viewBox="0 0 475 90" class="iconLeft"><!----><!----><!----><g data-v-423bf9ae="" id="cbcf12ba-8a06-4db3-a3cb-23e23a7cd71e" fill="white" transform="matrix(5.791505450303629,0,0,5.791505450303629,104.3243111965485,0.4054058988619005)"><path d="M0.98 2.80L0.98 12.60L6.37 12.60L6.37 11.20L2.52 11.20L2.52 2.80ZM7.42 2.80L7.42 12.60L8.96 12.60L8.96 2.80ZM14.84 9.67L11.55 2.80L9.87 2.80L14.84 12.88L19.81 2.80L18.13 2.80ZM22.26 7.98L26.39 7.98L26.39 6.58L22.26 6.58L22.26 4.20L26.67 4.20L26.67 2.80L20.72 2.80L20.72 12.60L26.67 12.60L26.67 11.20L22.26 11.20ZM30.10 7.98L33.81 7.98L33.81 6.58L30.10 6.58L30.10 4.20L33.95 4.20L33.95 2.80L28.56 2.80L28.56 12.60L30.10 12.60ZM36.72 7.70C36.72 6.64 37.07 5.75 37.78 5.03C38.48 4.32 39.35 3.96 40.39 3.96C41.45 3.96 42.33 4.32 43.02 5.03C43.71 5.74 44.06 6.63 44.06 7.70C44.06 8.76 43.71 9.65 43.00 10.37C42.30 11.08 41.43 11.44 40.39 11.44C39.35 11.44 38.48 11.08 37.78 10.37C37.07 9.65 36.72 8.76 36.72 7.70ZM35.14 7.70C35.14 9.18 35.65 10.42 36.66 11.40C37.67 12.39 38.92 12.88 40.39 12.88C41.86 12.88 43.11 12.39 44.12 11.40C45.13 10.42 45.64 9.18 45.64 7.70C45.64 6.23 45.13 4.99 44.10 4.00C43.07 3.01 41.84 2.52 40.39 2.52C38.92 2.52 37.67 3.01 36.66 4.00C35.65 4.98 35.14 6.22 35.14 7.70ZM48.06 7.70C48.06 6.64 48.41 5.75 49.12 5.03C49.82 4.32 50.69 3.96 51.73 3.96C52.79 3.96 53.67 4.32 54.36 5.03C55.05 5.74 55.40 6.63 55.40 7.70C55.40 8.76 55.05 9.65 54.34 10.37C53.64 11.08 52.77 11.44 51.73 11.44C50.69 11.44 49.82 11.08 49.12 10.37C48.41 9.65 48.06 8.76 48.06 7.70ZM46.48 7.70C46.48 9.18 46.99 10.42 48.00 11.40C49.01 12.39 50.26 12.88 51.73 12.88C53.20 12.88 54.45 12.39 55.46 11.40C56.47 10.42 56.98 9.18 56.98 7.70C56.98 6.23 56.47 4.99 55.44 4.00C54.41 3.01 53.18 2.52 51.73 2.52C50.26 2.52 49.01 3.01 48.00 4.00C46.99 4.98 46.48 6.22 46.48 7.70ZM57.26 4.20L59.78 4.20L59.78 12.60L61.32 12.60L61.32 4.20L63.84 4.20L63.84 2.80L57.26 2.80Z"></path></g><!----><g data-v-423bf9ae="" id="7f9e5eeb-0421-427a-b035-aeb122b11182" transform="matrix(2.8125,0,0,2.8125,0,0)" stroke="none" fill="white"><path d="M16 32c8.837 0 16-7.163 16-16S24.837 0 16 0 0 7.163 0 16s7.163 16 16 16zM14.817 6.421h2v8.886h8.887v2H14.817V6.421zm-5.959.437h2v14.283h14.283v2H8.858V6.858z"></path></g><!----></svg>