<svg id="Capa_1" enable-background="new 0 0 512 512" height="512" viewBox="0 0 512 512" width="512" xmlns="http://www.w3.org/2000/svg"><g><path d="m463.063 62.837c-26.398 0-47.875-21.477-47.875-47.876v-14.961h-318.376v14.962c0 26.399-21.477 47.876-47.875 47.876h-14.962v148.674c0 124.852 74.174 237.25 188.966 286.349l33.059 14.139 33.059-14.14c114.792-49.099 188.966-161.497 188.966-286.349v-148.674zm-337.771-32.914h261.417c6.048 30.922 30.471 55.346 61.393 61.394v25.407h-83.586c-24.065-34.058-63.736-56.341-108.516-56.341s-84.451 22.283-108.516 56.341h-83.586v-25.407c30.922-6.048 55.346-30.472 61.394-61.394zm145.675 265.026v-34.95l35.425-20.453 30.222 17.452c-15.92 20.067-39.16 34.073-65.647 37.951zm-50.396-122.232 23.483-13.558 11.947-6.898 35.427 20.454v40.918l-35.425 20.452-35.432-20.457zm-67.439 20.457c0-13.385 2.572-26.179 7.244-37.919l30.272 17.465v40.911l-30.265 17.48c-4.676-11.744-7.251-24.545-7.251-37.937zm153.263-46.372-35.429-20.455v-34.949c26.491 3.878 49.734 17.887 65.655 37.959zm-65.358-20.453-22.124 12.773-13.306 7.682-30.233-17.442c15.922-20.075 39.168-34.087 65.662-37.964v34.951zm-65.648 130.654 30.225-17.457 18.252 10.538 17.174 9.915v34.952c-26.488-3.877-49.729-17.882-65.651-37.948zm183.479-63.829c0 13.39-2.574 26.19-7.25 37.933l-30.26-17.474v-40.918l30.263-17.466c4.674 11.742 7.247 24.538 7.247 37.925zm-294.97 18.337v-64.864h67.73c-5.437 14.487-8.42 30.164-8.42 46.527 0 41.388 19.036 78.41 48.808 102.781v137.388c-67.269-52.516-108.118-133.745-108.118-221.832zm192.102 267.944s-43.605-19.528-54.059-25.71v-139.293c16.523 7.394 34.818 11.513 54.059 11.513s37.537-4.119 54.06-11.513v139.292c-10.455 6.182-54.06 25.711-54.06 25.711zm83.983-46.112v-137.387c29.772-24.372 48.808-61.394 48.808-102.781 0-16.363-2.983-32.04-8.42-46.527h67.73v64.864c.001 88.086-40.848 169.315-108.118 221.831z"/></g></svg>